<?xml version="1.0" encoding="iso-8859-1"?>
<!-- Generator: Adobe Illustrator 23.0.2, SVG Export Plug-In . SVG Version: 6.00 Build 0)  -->
<svg version="1.1" id="Layer_1" xmlns="http://www.w3.org/2000/svg" xmlns:xlink="http://www.w3.org/1999/xlink" x="0px" y="0px"
	 viewBox="0 0 1000 1000" style="enable-background:new 0 0 1000 1000;" xml:space="preserve">
<rect id="XMLID_82_" x="0" style="fill:#91A1AE;" width="1000" height="1000"/>
<g>
	<path id="XMLID_12_" style="opacity:0.32;fill:#FFFFFF;" d="M687.443,272.333c-4.539,0-8.702,1.596-11.969,4.252
		c-5.759-13.661-19.274-23.252-35.031-23.252c-20.987,0-38,17.013-38,38h66h10h28C706.443,280.84,697.937,272.333,687.443,272.333z"
		/>
	<rect id="XMLID_10_" x="330.072" y="502.819" style="fill:#EA633A;" width="163.381" height="193.848"/>
	<rect id="XMLID_183_" x="468.121" y="600.743" style="fill:#D85335;" width="18" height="8.308"/>
	<rect id="XMLID_186_" x="330.072" y="573.5" style="fill:#D85335;" width="18" height="8.308"/>
	<rect id="XMLID_184_" x="393.32" y="656.846" style="fill:#D85335;" width="18" height="8.308"/>
	<rect id="XMLID_185_" x="427.668" y="687.846" style="fill:#D85335;" width="18" height="8.308"/>
	<rect id="XMLID_182_" x="458.12" y="590.435" style="fill:#D85335;" width="18.001" height="8.308"/>
	
		<rect id="XMLID_165_" x="330.072" y="502.819" style="fill:#CE4829;stroke:#CE4829;stroke-width:6;stroke-linecap:round;stroke-linejoin:round;stroke-miterlimit:10;" width="163.381" height="45.975"/>
	
		<rect id="XMLID_8_" x="330.072" y="502.819" style="fill:none;stroke:#1C1A34;stroke-width:6;stroke-linecap:round;stroke-linejoin:round;stroke-miterlimit:10;" width="163.381" height="193.848"/>
	<polygon id="XMLID_7_" style="fill:#EC1E39;" points="527.798,538.563 293.55,538.563 353.914,378.647 588.162,378.647 	"/>
	<rect id="XMLID_192_" x="314.748" y="519.308" style="fill:#F22F50;" width="18" height="8.308"/>
	<rect id="XMLID_193_" x="324.998" y="509" style="fill:#DD1738;" width="18" height="8.308"/>
	<rect id="XMLID_191_" x="304.747" y="509" style="fill:#F22F50;" width="18.001" height="8.308"/>
	<rect id="XMLID_188_" x="353.203" y="411.055" style="fill:#F22F50;" width="18" height="8.308"/>
	<rect id="XMLID_187_" x="343.203" y="400.747" style="fill:#F22F50;" width="18.001" height="8.308"/>
	<path id="XMLID_168_" style="opacity:0.82;fill:#C91B38;" d="M495.437,538.563l-16.937-65.73l-12.738,10.329
		c-5.451,4.42-13.487,3.405-17.667-2.232l0,0c-4.015-5.413-2.938-13.047,2.417-17.139l84.378-64.476
		c4.477-3.421,10.704-3.371,15.126,0.121l26.874,21.225L495.437,538.563z"/>
	
		<polygon id="XMLID_9_" style="fill:none;stroke:#1C1A34;stroke-width:6;stroke-linecap:round;stroke-linejoin:round;stroke-miterlimit:10;" points="
		527.798,538.563 293.55,538.563 353.914,378.647 588.162,378.647 	"/>
	<rect id="XMLID_137_" x="433.897" y="342.333" style="fill:#1C1931;" width="38.443" height="36.313"/>
	<rect id="XMLID_15_" x="456.333" y="365.432" style="fill:#272544;" width="14.785" height="8.308"/>
	<rect id="XMLID_17_" x="431.856" y="357.125" style="fill:#272544;" width="13.812" height="8.308"/>
	
		<rect id="XMLID_11_" x="433.897" y="342.333" style="fill:none;stroke:#1C1A34;stroke-width:6;stroke-linecap:round;stroke-linejoin:round;stroke-miterlimit:10;" width="38.443" height="36.313"/>
	<rect id="XMLID_138_" x="424.286" y="327.795" style="fill:#282642;" width="57.664" height="14.539"/>
	
		<rect id="XMLID_19_" x="424.286" y="327.795" style="fill:none;stroke:#1C1A34;stroke-width:6;stroke-linecap:round;stroke-linejoin:round;stroke-miterlimit:10;" width="57.664" height="14.539"/>
	<rect id="XMLID_139_" x="367.763" y="560.667" style="fill:#71B8BC;" width="88" height="72"/>
	<polygon id="XMLID_156_" style="opacity:0.62;fill:#D0F6FB;" points="367.763,601.566 367.763,627.967 418.876,560.667 
		398.825,560.667 	"/>
	<polygon id="XMLID_155_" style="opacity:0.62;fill:#D0F6FB;" points="371.102,632.667 381.128,632.667 435.811,560.667 
		425.785,560.667 	"/>
	
		<rect id="XMLID_29_" x="367.763" y="560.667" style="fill:none;stroke:#1C1A34;stroke-width:6;stroke-linecap:round;stroke-linejoin:round;stroke-miterlimit:10;" width="88" height="72"/>
	
		<rect id="XMLID_166_" x="362.763" y="636.667" style="fill:#D14D2F;stroke:#CE4829;stroke-width:6;stroke-linecap:round;stroke-linejoin:round;stroke-miterlimit:10;" width="98" height="12"/>
	<rect id="XMLID_140_" x="362.763" y="632.667" style="fill:#656B82;" width="98" height="12"/>
	
		<rect id="XMLID_37_" x="362.763" y="632.667" style="fill:none;stroke:#1C1A34;stroke-width:6;stroke-linecap:round;stroke-linejoin:round;stroke-miterlimit:10;" width="98" height="12"/>
	<path id="XMLID_119_" style="fill:#1FBE6A;" d="M871.787,523.209c15.385,25.712,26.591,109.799-21.653,109.799
		c-48.245,0-37.039-84.088-21.653-109.799c6.355-10.62,14.828-15.534,21.653-15.534
		C856.959,507.675,865.433,512.589,871.787,523.209z"/>
	
		<path id="XMLID_42_" style="fill:none;stroke:#1C1A34;stroke-width:6;stroke-linecap:round;stroke-linejoin:round;stroke-miterlimit:10;" d="
		M871.787,523.209c15.385,25.712,26.591,109.799-21.653,109.799c-48.245,0-37.039-84.088-21.653-109.799
		c6.355-10.62,14.828-15.534,21.653-15.534C856.959,507.675,865.433,512.589,871.787,523.209z"/>
	<path id="XMLID_118_" style="fill:#2CDF78;" d="M825.682,494.224c15.385,30.02,26.591,128.197-21.653,128.197
		s-37.039-98.177-21.653-128.197c6.355-12.399,14.828-18.136,21.653-18.136S819.327,481.824,825.682,494.224z"/>
	
		<path id="XMLID_45_" style="fill:none;stroke:#1C1A34;stroke-width:6;stroke-linecap:round;stroke-linejoin:round;stroke-miterlimit:10;" d="
		M825.682,494.224c15.385,30.02,26.591,128.197-21.653,128.197s-37.039-98.177-21.653-128.197
		c6.355-12.399,14.828-18.136,21.653-18.136S819.327,481.824,825.682,494.224z"/>
	<path id="XMLID_123_" style="fill:#2BCCA0;" d="M256.342,619.416L256.342,619.416c-20.754-0.009-36.566-21.355-36.749-44.698
		c-0.62-58.657,14.419-121.123,39.129-184.874c1.114-2.875,4.689-2.757,5.662,0.185c21.473,64.954,31.49,126.938,28.713,186.071
		C292.157,599.009,276.646,619.413,256.342,619.416z"/>
	
		<path id="XMLID_51_" style="fill:none;stroke:#1C1A34;stroke-width:6;stroke-linecap:round;stroke-linejoin:round;stroke-miterlimit:10;" d="
		M256.342,619.416L256.342,619.416c-20.754-0.009-36.566-21.355-36.749-44.698c-0.62-58.657,14.419-121.123,39.129-184.874
		c1.114-2.875,4.689-2.757,5.662,0.185c21.473,64.954,31.49,126.938,28.713,186.071
		C292.157,599.009,276.646,619.413,256.342,619.416z"/>
	<path id="XMLID_32_" style="fill:#21AA7F;" d="M212.247,448.911c15.385,34.612,26.591,147.808-21.653,147.808
		s-37.039-113.196-21.653-147.808C175.295,434.615,183.768,428,190.593,428S205.892,434.615,212.247,448.911z"/>
	
		<path id="XMLID_49_" style="fill:none;stroke:#1C1A34;stroke-width:6;stroke-linecap:round;stroke-linejoin:round;stroke-miterlimit:10;" d="
		M212.247,448.911c15.385,34.612,26.591,147.808-21.653,147.808s-37.039-113.196-21.653-147.808
		C175.295,434.615,183.768,428,190.593,428S205.892,434.615,212.247,448.911z"/>
	<path id="XMLID_38_" style="fill:#2BCCA0;" d="M166.141,494.224c15.385,30.02,26.591,128.197-21.653,128.197
		s-37.039-98.177-21.653-128.197c6.355-12.399,14.828-18.136,21.653-18.136C151.313,476.087,159.786,481.824,166.141,494.224z"/>
	
		<path id="XMLID_47_" style="fill:none;stroke:#1C1A34;stroke-width:6;stroke-linecap:round;stroke-linejoin:round;stroke-miterlimit:10;" d="
		M166.141,494.224c15.385,30.02,26.591,128.197-21.653,128.197s-37.039-98.177-21.653-128.197
		c6.355-12.399,14.828-18.136,21.653-18.136C151.313,476.087,159.786,481.824,166.141,494.224z"/>
	<polygon id="XMLID_114_" style="fill:#FF9839;" points="733.719,696.667 493.453,696.667 493.453,439.818 613.586,336.53 
		733.719,439.818 	"/>
	<rect id="XMLID_170_" x="716" y="500.692" style="fill:#ED852F;" width="18" height="8.308"/>
	<rect id="XMLID_173_" x="706" y="511" style="fill:#ED852F;" width="18" height="8.308"/>
	<rect id="XMLID_174_" x="695.999" y="500.692" style="fill:#ED852F;" width="18.001" height="8.308"/>
	<rect id="XMLID_181_" x="622.084" y="413.401" style="fill:#ED852F;" width="18.001" height="8.308"/>
	<rect id="XMLID_176_" x="503.454" y="511" style="fill:#ED852F;" width="18" height="8.308"/>
	<rect id="XMLID_180_" x="693.334" y="652" style="fill:#ED852F;" width="18" height="8.308"/>
	<rect id="XMLID_179_" x="552.121" y="451.653" style="fill:#ED852F;" width="18" height="8.308"/>
	<rect id="XMLID_175_" x="493.453" y="500.692" style="fill:#ED852F;" width="18.001" height="8.308"/>
	<rect id="XMLID_190_" x="484.453" y="382.404" style="fill:#DD1738;" width="18" height="8.308"/>
	<rect id="XMLID_189_" x="446.762" y="505.846" style="fill:#DD1738;" width="18.001" height="8.308"/>
	<rect id="XMLID_178_" x="603.367" y="588.359" style="fill:#ED852F;" width="18" height="8.308"/>
	<rect id="XMLID_177_" x="593.366" y="578.051" style="fill:#ED852F;" width="18.001" height="8.308"/>
	<polygon id="XMLID_167_" style="fill:#EA633A;" points="493.453,439.818 493.453,455.38 613.33,353.939 733.719,455.807 
		733.719,439.818 613.586,336.53 	"/>
	
		<polygon id="XMLID_1_" style="fill:none;stroke:#1C1A34;stroke-width:6;stroke-linecap:round;stroke-linejoin:round;stroke-miterlimit:10;" points="
		733.719,696.667 493.453,696.667 493.453,439.818 613.586,336.53 733.719,439.818 	"/>
	<rect id="XMLID_131_" x="621.334" y="560.667" style="fill:#99393E;" width="72" height="136"/>
	<rect id="XMLID_172_" x="685.099" y="560.667" style="fill:#822E36;" width="8.235" height="136"/>
	
		<rect id="XMLID_18_" x="621.334" y="560.667" style="fill:none;stroke:#1C1A34;stroke-width:6;stroke-linecap:round;stroke-linejoin:round;stroke-miterlimit:10;" width="72" height="136"/>
	<rect id="XMLID_135_" x="531.366" y="560.667" style="fill:#89C6CC;" width="62" height="72"/>
	<polygon id="XMLID_160_" style="opacity:0.92;fill:#D0F6FB;" points="531.366,620.608 576.89,560.667 556.839,560.667 
		531.366,594.206 	"/>
	<polygon id="XMLID_161_" style="opacity:0.92;fill:#D0F6FB;" points="593.366,561.271 593.366,560.667 583.799,560.667 
		531.366,629.705 531.366,632.667 539.142,632.667 	"/>
	
		<rect id="XMLID_152_" x="524.366" y="636.667" style="fill:#EA633A;stroke:#EA633A;stroke-width:6;stroke-linecap:round;stroke-linejoin:round;stroke-miterlimit:10;" width="76" height="12"/>
	
		<rect id="XMLID_28_" x="531.366" y="560.667" style="fill:none;stroke:#1C1A34;stroke-width:6;stroke-linecap:round;stroke-linejoin:round;stroke-miterlimit:10;" width="62" height="72"/>
	<rect id="XMLID_136_" x="524.366" y="632.667" style="fill:#656B82;" width="76" height="12"/>
	
		<rect id="XMLID_39_" x="524.366" y="632.667" style="fill:none;stroke:#1C1A34;stroke-width:6;stroke-linecap:round;stroke-linejoin:round;stroke-miterlimit:10;" width="76" height="12"/>
	<circle id="XMLID_120_" style="fill:#98AAB5;" cx="613.586" cy="449.662" r="29"/>
	<path id="XMLID_153_" style="fill:#7B929E;" d="M613.586,420.662c-2.776,0-5.458,0.398-8,1.127c12.124,3.474,21,14.633,21,27.873
		c0,13.24-8.876,24.4-21,27.873c2.542,0.728,5.224,1.127,8,1.127c16.016,0,29-12.984,29-29
		C642.586,433.645,629.602,420.662,613.586,420.662z"/>
	
		<circle id="XMLID_30_" style="fill:none;stroke:#1C1A34;stroke-width:6;stroke-linecap:round;stroke-linejoin:round;stroke-miterlimit:10;" cx="613.586" cy="449.662" r="29"/>
	<path id="XMLID_133_" style="fill:#6E818E;" d="M705.334,696.667h-96v-8c0-7.732,6.268-14,14-14h68c7.732,0,14,6.268,14,14V696.667
		z"/>
	<rect id="XMLID_169_" x="609.334" y="687.333" style="fill:#5C6F7A;" width="96" height="9.333"/>
	
		<path id="XMLID_6_" style="fill:none;stroke:#1C1A34;stroke-width:6;stroke-linecap:round;stroke-linejoin:round;stroke-miterlimit:10;" d="
		M705.334,696.667h-96v-8c0-7.732,6.268-14,14-14h68c7.732,0,14,6.268,14,14V696.667z"/>
	
		<line id="XMLID_115_" style="fill:none;stroke:#1C1A34;stroke-width:8;stroke-linecap:round;stroke-linejoin:round;stroke-miterlimit:10;" x1="109.635" y1="696.667" x2="897" y2="696.667"/>
	<path id="XMLID_117_" style="fill:#FF4B53;" d="M767.428,458.472L767.428,458.472c-3.431,4.125-9.567,4.663-13.663,1.197
		L613.33,340.84L472.905,459.668c-4.096,3.466-10.232,2.928-13.663-1.197v0c-3.39-4.076-2.86-10.122,1.187-13.546L598.38,328.19
		l14.96-12.66l14.94,12.65l137.961,116.745C770.288,448.349,770.817,454.396,767.428,458.472z"/>
	<rect id="XMLID_194_" x="504.552" y="416.508" style="fill:#EA3F54;" width="14.449" height="8.308"/>
	<rect id="XMLID_195_" x="611.668" y="328.795" style="fill:#EA3F54;" width="13.336" height="8.308"/>
	
		<path id="XMLID_125_" style="fill:none;stroke:#1C1A34;stroke-width:6;stroke-linecap:round;stroke-linejoin:round;stroke-miterlimit:10;" d="
		M767.428,458.472L767.428,458.472c-3.431,4.125-9.567,4.663-13.663,1.197L613.33,340.84L472.905,459.668
		c-4.096,3.466-10.232,2.928-13.663-1.197v0c-3.39-4.076-2.86-10.122,1.187-13.546L598.38,328.19l14.96-12.66l14.94,12.65
		l137.961,116.745C770.288,448.349,770.817,454.396,767.428,458.472z"/>
	
		<line id="XMLID_46_" style="fill:none;stroke:#1C1A34;stroke-width:6;stroke-linecap:round;stroke-linejoin:round;stroke-miterlimit:10;" x1="804.548" y1="696.667" x2="804.548" y2="544.087"/>
	
		<line id="XMLID_43_" style="fill:none;stroke:#1C1A34;stroke-width:6;stroke-linecap:round;stroke-linejoin:round;stroke-miterlimit:10;" x1="850.654" y1="696.667" x2="850.654" y2="544.087"/>
	
		<line id="XMLID_122_" style="fill:none;stroke:#1C1A34;stroke-width:6;stroke-linecap:round;stroke-linejoin:round;stroke-miterlimit:10;" x1="613.586" y1="478.662" x2="613.586" y2="420.662"/>
	
		<line id="XMLID_121_" style="fill:none;stroke:#1C1A34;stroke-width:6;stroke-linecap:round;stroke-linejoin:round;stroke-miterlimit:10;" x1="584.586" y1="449.662" x2="642.586" y2="449.662"/>
	
		<rect id="XMLID_130_" x="162.333" y="628.667" style="fill:none;stroke:#1C1A34;stroke-width:6;stroke-linecap:round;stroke-linejoin:round;stroke-miterlimit:10;" width="188" height="4"/>
	
		<rect id="XMLID_132_" x="162.333" y="657" style="fill:none;stroke:#1C1A34;stroke-width:6;stroke-linecap:round;stroke-linejoin:round;stroke-miterlimit:10;" width="188" height="4"/>
	
		<line id="XMLID_50_" style="fill:none;stroke:#1C1A34;stroke-width:6;stroke-linecap:round;stroke-linejoin:round;stroke-miterlimit:10;" x1="191.113" y1="696.667" x2="191.113" y2="491.27"/>
	
		<line id="XMLID_48_" style="fill:none;stroke:#1C1A34;stroke-width:6;stroke-linecap:round;stroke-linejoin:round;stroke-miterlimit:10;" x1="145.007" y1="696.667" x2="145.007" y2="544.087"/>
	
		<line id="XMLID_52_" style="fill:none;stroke:#1C1A34;stroke-width:6;stroke-linecap:round;stroke-linejoin:round;stroke-miterlimit:10;" x1="258.68" y1="696.667" x2="258.68" y2="506.5"/>
	<polygon id="XMLID_124_" style="fill:#663333;" points="337.873,696.667 323.873,696.667 323.873,609.667 330.873,597.287 
		337.873,609.667 	"/>
	
		<polygon id="XMLID_31_" style="fill:none;stroke:#1C1A34;stroke-width:6;stroke-linecap:round;stroke-linejoin:round;stroke-miterlimit:10;" points="
		337.873,696.667 323.873,696.667 323.873,609.667 330.873,597.287 337.873,609.667 	"/>
	<polygon id="XMLID_126_" style="fill:#663333;" points="300.748,696.667 286.748,696.667 286.748,609.667 293.748,597.287 
		300.748,609.667 	"/>
	
		<polygon id="XMLID_33_" style="fill:none;stroke:#1C1A34;stroke-width:6;stroke-linecap:round;stroke-linejoin:round;stroke-miterlimit:10;" points="
		300.748,696.667 286.748,696.667 286.748,609.667 293.748,597.287 300.748,609.667 	"/>
	<polygon id="XMLID_127_" style="fill:#663333;" points="263.623,696.667 249.623,696.667 249.623,609.667 256.623,597.287 
		263.623,609.667 	"/>
	
		<polygon id="XMLID_34_" style="fill:none;stroke:#1C1A34;stroke-width:6;stroke-linecap:round;stroke-linejoin:round;stroke-miterlimit:10;" points="
		263.623,696.667 249.623,696.667 249.623,609.667 256.623,597.287 263.623,609.667 	"/>
	<polygon id="XMLID_128_" style="fill:#663333;" points="226.498,696.667 212.498,696.667 212.498,609.667 219.498,597.287 
		226.498,609.667 	"/>
	
		<polygon id="XMLID_35_" style="fill:none;stroke:#1C1A34;stroke-width:6;stroke-linecap:round;stroke-linejoin:round;stroke-miterlimit:10;" points="
		226.498,696.667 212.498,696.667 212.498,609.667 219.498,597.287 226.498,609.667 	"/>
	<polygon id="XMLID_129_" style="fill:#663333;" points="189.373,696.667 175.373,696.667 175.373,609.667 182.373,597.287 
		189.373,609.667 	"/>
	
		<polygon id="XMLID_36_" style="fill:none;stroke:#1C1A34;stroke-width:6;stroke-linecap:round;stroke-linejoin:round;stroke-miterlimit:10;" points="
		189.373,696.667 175.373,696.667 175.373,609.667 182.373,597.287 189.373,609.667 	"/>
	
		<line id="XMLID_134_" style="fill:none;stroke:#1C1A34;stroke-width:6;stroke-linecap:round;stroke-linejoin:round;stroke-miterlimit:10;" x1="633" y1="629.5" x2="633" y2="652"/>
	
		<line id="XMLID_141_" style="fill:none;stroke:#1C1A34;stroke-width:6;stroke-linecap:round;stroke-linejoin:round;stroke-miterlimit:10;" x1="851.563" y1="571.77" x2="859.667" y2="563"/>
	
		<line id="XMLID_142_" style="fill:none;stroke:#1C1A34;stroke-width:6;stroke-linecap:round;stroke-linejoin:round;stroke-miterlimit:10;" x1="850.654" y1="601.667" x2="863.333" y2="593.333"/>
	
		<line id="XMLID_143_" style="fill:none;stroke:#1C1A34;stroke-width:6;stroke-linecap:round;stroke-linejoin:round;stroke-miterlimit:10;" x1="850.134" y1="586.667" x2="841.667" y2="580.333"/>
	
		<line id="XMLID_144_" style="fill:none;stroke:#1C1A34;stroke-width:6;stroke-linecap:round;stroke-linejoin:round;stroke-miterlimit:10;" x1="804.548" y1="563" x2="815.281" y2="555"/>
	
		<line id="XMLID_145_" style="fill:none;stroke:#1C1A34;stroke-width:6;stroke-linecap:round;stroke-linejoin:round;stroke-miterlimit:10;" x1="804.548" y1="592" x2="821.333" y2="580.333"/>
	
		<line id="XMLID_146_" style="fill:none;stroke:#1C1A34;stroke-width:6;stroke-linecap:round;stroke-linejoin:round;stroke-miterlimit:10;" x1="804.028" y1="575.667" x2="792.667" y2="565"/>
	
		<line id="XMLID_147_" style="fill:none;stroke:#1C1A34;stroke-width:6;stroke-linecap:round;stroke-linejoin:round;stroke-miterlimit:10;" x1="273.5" y1="556.5" x2="258.68" y2="573.5"/>
	
		<line id="XMLID_148_" style="fill:none;stroke:#1C1A34;stroke-width:6;stroke-linecap:round;stroke-linejoin:round;stroke-miterlimit:10;" x1="268.5" y1="516.598" x2="258.68" y2="531"/>
	
		<line id="XMLID_149_" style="fill:none;stroke:#1C1A34;stroke-width:6;stroke-linecap:round;stroke-linejoin:round;stroke-miterlimit:10;" x1="258.68" y1="553.5" x2="245.5" y2="544.087"/>
	<rect id="XMLID_151_" x="638.377" y="583.5" style="fill:#89C6CC;" width="37.914" height="36.877"/>
	<polygon id="XMLID_158_" style="opacity:0.92;fill:#D0F6FB;" points="638.377,611.734 659.82,583.5 639.769,583.5 638.377,585.332 
			"/>
	<polygon id="XMLID_157_" style="opacity:0.92;fill:#D0F6FB;" points="665.497,583.5 638.377,619.208 638.377,620.377 
		642.502,620.377 670.51,583.5 	"/>
	
		<rect id="XMLID_150_" x="638.377" y="583.5" style="fill:none;stroke:#1C1A34;stroke-width:6;stroke-linecap:round;stroke-linejoin:round;stroke-miterlimit:10;" width="37.914" height="36.877"/>
	
		<line id="XMLID_154_" style="fill:none;stroke:#1C1A34;stroke-width:6;stroke-linecap:round;stroke-linejoin:round;stroke-miterlimit:10;" x1="203.5" y1="509" x2="191.113" y2="521.5"/>
	
		<line id="XMLID_159_" style="fill:none;stroke:#1C1A34;stroke-width:6;stroke-linecap:round;stroke-linejoin:round;stroke-miterlimit:10;" x1="191.113" y1="553.5" x2="207" y2="538.563"/>
	
		<line id="XMLID_162_" style="fill:none;stroke:#1C1A34;stroke-width:6;stroke-linecap:round;stroke-linejoin:round;stroke-miterlimit:10;" x1="191.113" y1="534.5" x2="179.341" y2="523.799"/>
	
		<line id="XMLID_163_" style="fill:none;stroke:#1C1A34;stroke-width:6;stroke-linecap:round;stroke-linejoin:round;stroke-miterlimit:10;" x1="145.007" y1="584" x2="155.741" y2="571.5"/>
	
		<line id="XMLID_164_" style="fill:none;stroke:#1C1A34;stroke-width:6;stroke-linecap:round;stroke-linejoin:round;stroke-miterlimit:10;" x1="144.488" y1="565" x2="134.5" y2="556.5"/>
	<path id="XMLID_4_" style="opacity:0.32;fill:#FFFFFF;" d="M276.112,236.666c0.076-0.835,0.12-1.679,0.12-2.533
		c0-15.287-12.392-27.679-27.679-27.679c-5.273,0-10.201,1.475-14.395,4.034c-3.492-2.527-7.771-4.034-12.411-4.034
		c-1.696,0-3.337,0.22-4.918,0.596c-2.262-14.14-14.512-24.945-29.289-24.945c-2.992,0-5.878,0.447-8.601,1.271
		c-7.896-6.184-17.835-9.881-28.642-9.881c-22.881,0-41.889,16.529-45.768,38.296c-0.246-0.006-0.49-0.019-0.737-0.019
		c-14.759,0-26.996,10.78-29.279,24.894H276.112z"/>
	<path id="XMLID_13_" style="opacity:0.32;fill:#FFFFFF;" d="M974.091,202.946c-2.018-3.014-5.453-5-9.353-5
		c-2.119,0-4.094,0.597-5.786,1.615c-0.337-9.783-8.353-17.615-18.218-17.615c-2.763,0-5.372,0.632-7.719,1.731
		c-4.176-13.118-16.455-22.622-30.957-22.622c-17.942,0-32.486,14.544-32.486,32.486c0,3.271,0.489,6.428,1.388,9.406H974.091z"/>
</g>
</svg>
